<?xml version="1.0" encoding="UTF-8"?>
<!DOCTYPE svg PUBLIC "-//W3C//DTD SVG 1.1//EN" "http://www.w3.org/Graphics/SVG/1.1/DTD/svg11.dtd">
<svg xmlns="http://www.w3.org/2000/svg" version="1.1" width="512px" height="512px" style="shape-rendering:geometricPrecision; text-rendering:geometricPrecision; image-rendering:optimizeQuality; fill-rule:evenodd; clip-rule:evenodd" xmlns:xlink="http://www.w3.org/1999/xlink">
<g><path style="opacity:0.994" fill="#26a1e8" d="M 511.5,255.5 C 511.5,255.833 511.5,256.167 511.5,256.5C 508.253,351.856 466.587,425.022 386.5,476C 350.833,496.836 312.499,508.669 271.5,511.5C 260.833,511.5 250.167,511.5 239.5,511.5C 149.538,502.952 81.0385,460.286 34,383.5C -2.93751,315.251 -9.27085,244.251 15,170.5C 49.3046,82.5354 112.471,27.7021 204.5,6C 310.812,-11.226 396.979,22.274 463,106.5C 494.306,151.25 510.472,200.917 511.5,255.5 Z"/></g>
<g><path style="opacity:1" fill="#f3f4f4" d="M 237.5,31.5 C 313.928,28.122 377.428,54.7887 428,111.5C 483.292,182.078 494.959,259.411 463,343.5C 426.683,422.12 365.516,467.62 279.5,480C 201.166,485.904 136,459.737 84,401.5C 34.3982,339.398 19.7315,269.732 40,192.5C 68.0309,109.468 124.531,57.3014 209.5,36C 218.94,34.2492 228.273,32.7492 237.5,31.5 Z"/></g>
<g><path style="opacity:1" fill="#27a1e8" d="M 240.5,61.5 C 329.696,59.6559 394.196,98.3226 434,177.5C 462.656,250.572 453.322,318.239 406,380.5C 350.192,442.254 281.692,463.088 200.5,443C 134.667,421.167 90.8333,377.333 69,311.5C 48.4752,228.084 70.6418,158.584 135.5,103C 166.577,79.2519 201.577,65.4186 240.5,61.5 Z"/></g>
<g><path style="opacity:1" fill="#c6e7fb" d="M 238.5,91.5 C 294.686,87.8581 341.852,106.525 380,147.5C 426.685,206.1 433.352,269.1 400,336.5C 369.739,387.352 324.906,415.519 265.5,421C 191.522,421.778 138.022,389.278 105,323.5C 76.5192,248.266 91.6859,183.432 150.5,129C 176.448,108.525 205.781,96.0253 238.5,91.5 Z"/></g>
<g><path style="opacity:1" fill="#26a1e8" d="M 245.5,181.5 C 282.049,179.512 308.216,194.846 324,227.5C 335.662,261.688 328.162,290.854 301.5,315C 265.035,339.169 230.868,336.336 199,306.5C 174.407,274.901 173.407,242.568 196,209.5C 209.309,194.269 225.809,184.936 245.5,181.5 Z"/></g>
<g><path style="opacity:1" fill="#f4f4f4" d="M 245.5,211.5 C 282.652,210.485 300.485,228.485 299,265.5C 291.312,290.266 274.479,302.1 248.5,301C 221.612,294.434 208.779,277.267 210,249.5C 214.509,229.829 226.343,217.162 245.5,211.5 Z"/></g>
</svg>
