<?xml version="1.0" encoding="UTF-8"?>
<!DOCTYPE svg PUBLIC "-//W3C//DTD SVG 1.1//EN" "http://www.w3.org/Graphics/SVG/1.1/DTD/svg11.dtd">
<svg xmlns="http://www.w3.org/2000/svg" version="1.1" width="512px" height="512px" style="shape-rendering:geometricPrecision; text-rendering:geometricPrecision; image-rendering:optimizeQuality; fill-rule:evenodd; clip-rule:evenodd" xmlns:xlink="http://www.w3.org/1999/xlink">
<g><path style="opacity:1" fill="#e45353" d="M 234.5,-0.5 C 248.5,-0.5 262.5,-0.5 276.5,-0.5C 318.306,4.09798 355.639,19.4313 388.5,45.5C 412.729,142.885 392.896,229.885 329,306.5C 273.092,367.036 203.925,398.703 121.5,401.5C 90.324,363.502 67.1573,320.836 52,273.5C 29.3806,186.048 50.8806,111.548 116.5,50C 150.754,21.4117 190.087,4.57839 234.5,-0.5 Z"/></g>
<g><path style="opacity:0.995" fill="#dd4247" d="M 388.5,45.5 C 450.914,98.5417 476.414,165.875 465,247.5C 454.61,295.266 435.277,338.933 407,378.5C 374.5,425.667 334.667,465.5 287.5,498C 279.392,503.052 271.059,507.552 262.5,511.5C 257.833,511.5 253.167,511.5 248.5,511.5C 223.838,499.019 201.171,483.519 180.5,465C 159.215,445.219 139.548,424.053 121.5,401.5C 203.925,398.703 273.092,367.036 329,306.5C 392.896,229.885 412.729,142.885 388.5,45.5 Z"/></g>
<g><path style="opacity:1" fill="#fefefe" d="M 244.5,132.5 C 283.046,130.34 310.212,146.674 326,181.5C 335.625,212.051 329.459,238.884 307.5,262C 284.575,281.919 258.575,287.252 229.5,278C 198.035,264.431 181.702,240.431 180.5,206C 182.134,177.053 195.467,155.387 220.5,141C 228.296,137.237 236.296,134.404 244.5,132.5 Z"/></g>
</svg>
