<?xml version="1.0" encoding="UTF-8"?>
<!DOCTYPE svg PUBLIC "-//W3C//DTD SVG 1.1//EN" "http://www.w3.org/Graphics/SVG/1.1/DTD/svg11.dtd">
<svg xmlns="http://www.w3.org/2000/svg" version="1.1" width="512px" height="512px" style="shape-rendering:geometricPrecision; text-rendering:geometricPrecision; image-rendering:optimizeQuality; fill-rule:evenodd; clip-rule:evenodd" xmlns:xlink="http://www.w3.org/1999/xlink">
<g><path style="opacity:0.967" fill="#000000" d="M 249.5,-0.5 C 253.5,-0.5 257.5,-0.5 261.5,-0.5C 265.479,1.31481 268.312,4.31481 270,8.5C 270.5,19.1615 270.667,29.8281 270.5,40.5C 354.093,48.9684 414.593,90.6351 452,165.5C 462.719,189.377 468.886,214.377 470.5,240.5C 481.172,240.333 491.839,240.5 502.5,241C 506.685,242.688 509.685,245.521 511.5,249.5C 511.5,253.5 511.5,257.5 511.5,261.5C 509.685,265.479 506.685,268.312 502.5,270C 491.839,270.5 481.172,270.667 470.5,270.5C 462.032,354.093 420.365,414.593 345.5,452C 321.623,462.719 296.623,468.886 270.5,470.5C 270.667,481.172 270.5,491.839 270,502.5C 268.312,506.685 265.479,509.685 261.5,511.5C 257.5,511.5 253.5,511.5 249.5,511.5C 245.521,509.685 242.688,506.685 241,502.5C 240.5,491.839 240.333,481.172 240.5,470.5C 156.907,462.032 96.4069,420.365 59,345.5C 48.2807,321.623 42.1141,296.623 40.5,270.5C 29.8281,270.667 19.1615,270.5 8.5,270C 4.31481,268.312 1.31481,265.479 -0.5,261.5C -0.5,257.5 -0.5,253.5 -0.5,249.5C 1.31481,245.521 4.31481,242.688 8.5,241C 19.1615,240.5 29.8281,240.333 40.5,240.5C 48.9684,156.907 90.6351,96.4069 165.5,59C 189.377,48.2807 214.377,42.1141 240.5,40.5C 240.333,29.8281 240.5,19.1615 241,8.5C 242.688,4.31481 245.521,1.31481 249.5,-0.5 Z M 234.5,71.5 C 236.5,71.5 238.5,71.5 240.5,71.5C 240.333,83.1714 240.5,94.8381 241,106.5C 244.03,112.35 248.863,115.684 255.5,116.5C 262.137,115.684 266.97,112.35 270,106.5C 270.5,94.8381 270.667,83.1714 270.5,71.5C 340.702,79.3225 391.535,114.656 423,177.5C 432.364,197.487 437.864,218.487 439.5,240.5C 427.829,240.333 416.162,240.5 404.5,241C 398.65,244.03 395.316,248.863 394.5,255.5C 395.316,262.137 398.65,266.97 404.5,270C 416.162,270.5 427.829,270.667 439.5,270.5C 431.677,340.702 396.344,391.535 333.5,423C 313.513,432.364 292.513,437.864 270.5,439.5C 270.667,427.829 270.5,416.162 270,404.5C 266.97,398.65 262.137,395.316 255.5,394.5C 248.863,395.316 244.03,398.65 241,404.5C 240.5,416.162 240.333,427.829 240.5,439.5C 170.298,431.677 119.465,396.344 88,333.5C 78.6358,313.513 73.1358,292.513 71.5,270.5C 83.1714,270.667 94.8381,270.5 106.5,270C 112.35,266.97 115.684,262.137 116.5,255.5C 115.684,248.863 112.35,244.03 106.5,241C 94.8381,240.5 83.1714,240.333 71.5,240.5C 79.3225,170.298 114.656,119.465 177.5,88C 195.828,79.7185 214.828,74.2185 234.5,71.5 Z M 246.5,209.5 C 274.851,207.077 293.018,219.41 301,246.5C 303.907,274.872 291.74,293.038 264.5,301C 236.128,303.907 217.962,291.74 210,264.5C 207.278,236.09 219.444,217.756 246.5,209.5 Z"/></g>
<g><path style="opacity:0.983" fill="#000000" d="M 245.5,136.5 C 295.075,134.865 332.909,154.865 359,196.5C 382.397,242.921 379.064,287.254 349,329.5C 314.157,369.344 270.99,382.51 219.5,369C 170.907,351.398 143.407,316.898 137,265.5C 134.879,215.9 154.712,178.067 196.5,152C 211.93,143.567 228.263,138.4 245.5,136.5 Z M 246.5,209.5 C 219.444,217.756 207.278,236.09 210,264.5C 217.962,291.74 236.128,303.907 264.5,301C 291.74,293.038 303.907,274.872 301,246.5C 293.018,219.41 274.851,207.077 246.5,209.5 Z"/></g>
<g><path style="opacity:0.948" fill="#000000" d="M 249.5,238.5 C 269.093,237.918 275.926,246.918 270,265.5C 263.006,272.991 254.84,274.491 245.5,270C 238.009,263.006 236.509,254.84 241,245.5C 243.441,242.546 246.275,240.213 249.5,238.5 Z"/></g>
</svg>
