<?xml version="1.0" encoding="UTF-8"?>
<!DOCTYPE svg PUBLIC "-//W3C//DTD SVG 1.1//EN" "http://www.w3.org/Graphics/SVG/1.1/DTD/svg11.dtd">
<svg xmlns="http://www.w3.org/2000/svg" version="1.1" width="512px" height="512px" style="shape-rendering:geometricPrecision; text-rendering:geometricPrecision; image-rendering:optimizeQuality; fill-rule:evenodd; clip-rule:evenodd" xmlns:xlink="http://www.w3.org/1999/xlink">
<g><path style="opacity:0.968" fill="#000000" d="M 59.5,105.5 C 190.167,105.333 320.834,105.5 451.5,106C 463.014,108.523 468.681,115.689 468.5,127.5C 468.681,139.311 463.014,146.477 451.5,149C 320.833,149.667 190.167,149.667 59.5,149C 45.1694,144.86 39.6694,135.36 43,120.5C 45.532,112.131 51.032,107.131 59.5,105.5 Z"/></g>
<g><path style="opacity:0.968" fill="#000000" d="M 59.5,233.5 C 190.167,233.333 320.834,233.5 451.5,234C 463.014,236.523 468.681,243.689 468.5,255.5C 468.681,267.311 463.014,274.477 451.5,277C 320.833,277.667 190.167,277.667 59.5,277C 45.1694,272.86 39.6694,263.36 43,248.5C 45.532,240.131 51.032,235.131 59.5,233.5 Z"/></g>
<g><path style="opacity:0.968" fill="#000000" d="M 59.5,361.5 C 190.167,361.333 320.834,361.5 451.5,362C 463.014,364.523 468.681,371.689 468.5,383.5C 468.681,395.311 463.014,402.477 451.5,405C 320.833,405.667 190.167,405.667 59.5,405C 45.1694,400.86 39.6694,391.36 43,376.5C 45.532,368.131 51.032,363.131 59.5,361.5 Z"/></g>
</svg>
